<!DOCTYPE svg PUBLIC "-//W3C//DTD SVG 20010904//EN" "http://www.w3.org/TR/2001/REC-SVG-20010904/DTD/svg10.dtd">
<svg version="1.0" xmlns="http://www.w3.org/2000/svg" width="800px" height="800px" viewBox="0 0 8000 8000" preserveAspectRatio="xMidYMid meet">
<g id="layer1" fill="#ffffff" stroke="none">
 <path d="M3110 6344 c-275 -33 -483 -106 -686 -243 -426 -287 -675 -749 -674 -1251 1 -658 423 -1230 1058 -1434 265 -85 618 -86 882 -1 637 205 1061 779 1060 1435 -1 657 -423 1230 -1057 1434 -62 20 -143 41 -180 46 -75 11 -348 21 -403 14z m229 -654 c290 -30 531 -192 648 -436 33 -69 34 -73 19 -107 -16 -39 -41 -57 -81 -57 -43 0 -62 16 -97 83 -50 95 -184 225 -278 270 -107 52 -178 68 -300 68 -165 0 -295 -44 -416 -142 -75 -61 -111 -105 -160 -193 -20 -37 -44 -71 -54 -76 -57 -30 -131 9 -133 70 -1 43 39 124 103 212 121 165 338 283 565 308 39 4 73 8 76 9 4 0 52 -4 108 -9z m-686 -1168 c10 -10 21 -40 26 -66 29 -158 239 -153 264 8 3 21 14 47 23 57 23 26 78 25 105 -2 18 -18 21 -29 16 -75 -10 -99 -65 -178 -157 -226 -35 -18 -61 -23 -120 -23 -90 0 -150 26 -210 91 -63 69 -90 194 -50 234 26 26 81 26 103 2z m927 -2 c11 -11 20 -31 20 -45 0 -67 68 -135 135 -135 67 0 135 68 135 135 0 58 86 89 126 44 32 -36 17 -135 -33 -211 -44 -65 -148 -118 -233 -118 -90 0 -200 67 -240 146 -32 65 -40 157 -15 184 24 26 79 26 105 0z"/>
 <path d="M4898 5510 c-15 -9 -14 -17 12 -87 39 -111 50 -147 55 -184 13 -104 49 -296 58 -306 5 -7 26 -13 47 -13 56 0 184 -36 253 -71 144 -72 248 -172 317 -300 38 -73 40 -120 4 -148 -52 -41 -98 -22 -139 57 -46 88 -164 202 -255 245 -101 48 -219 73 -233 50 -5 -8 -43 -219 -51 -287 -6 -39 -13 -64 -54 -183 -13 -40 -24 -75 -23 -77 0 -3 -20 -46 -44 -96 -25 -49 -45 -92 -45 -95 0 -3 -16 -30 -36 -60 -38 -56 -38 -79 0 -69 34 8 76 -30 76 -70 0 -47 -26 -117 -59 -157 -57 -68 -167 -99 -271 -76 -33 7 -39 4 -92 -45 -102 -96 -257 -202 -369 -254 -25 -12 -49 -26 -52 -31 -10 -16 133 -143 248 -220 436 -292 1044 -292 1480 0 153 102 289 239 392 392 293 435 293 1044 0 1480 -226 337 -570 553 -957 600 -134 17 -238 18 -262 5z m388 -1646 c6 -8 14 -32 18 -53 16 -104 134 -143 205 -67 12 13 27 45 34 72 15 62 48 84 93 63 25 -12 29 -21 32 -58 7 -92 -60 -195 -146 -228 -107 -41 -245 -3 -304 82 -31 46 -54 131 -44 169 11 44 84 57 112 20z"/>
 <path d="M4651 3783 c-43 -58 -44 -86 -2 -63 25 13 61 67 61 92 0 35 -18 26 -59 -29z"/>
 </g>
<g id="layer2" fill="#010101" stroke="none">
 <path d="M2940 6606 c-313 -69 -487 -142 -725 -306 -78 -53 -305 -261 -305 -279 0 -4 -10 -16 -21 -27 -57 -51 -259 -362 -259 -399 0 -5 -16 -42 -34 -81 -19 -39 -37 -84 -40 -100 -2 -16 -5 -31 -5 -33 -1 -2 -27 22 -58 54 -31 31 -80 69 -107 83 -47 25 -60 27 -176 27 -120 0 -127 -1 -178 -29 -111 -62 -199 -185 -218 -306 -6 -34 -14 -44 -56 -71 -62 -40 -131 -119 -166 -189 -25 -51 -27 -65 -27 -175 0 -110 2 -124 27 -175 35 -70 104 -149 166 -189 42 -26 50 -37 55 -69 16 -114 104 -241 208 -300 l49 -27 0 -620 c0 -363 4 -647 10 -685 55 -355 212 -656 471 -905 203 -194 421 -315 709 -394 l95 -26 1615 -5 c888 -3 1674 -2 1745 2 294 15 593 152 833 383 254 244 398 535 432 874 5 57 10 217 10 356 l0 253 23 6 c34 8 132 104 160 157 14 25 30 71 36 101 11 51 16 58 59 85 56 35 110 97 146 169 23 46 26 64 26 157 0 98 -2 108 -32 167 -32 62 -146 180 -174 180 -7 0 -17 22 -23 53 -25 120 -99 217 -204 270 -46 24 -64 27 -155 27 -116 0 -151 -12 -235 -82 -27 -22 -50 -39 -51 -37 -2 2 -15 45 -30 94 -15 50 -32 106 -38 125 -18 58 -113 254 -131 269 -10 7 -17 17 -17 22 0 10 -49 88 -73 114 -9 11 -43 52 -76 90 -32 39 -86 96 -121 128 -71 67 -215 175 -247 187 -11 5 -24 14 -28 20 -14 23 -237 119 -365 158 -175 52 -256 63 -478 61 l-183 -1 -27 40 c-63 94 -112 159 -136 181 -14 14 -26 28 -26 32 0 18 -245 241 -311 284 -9 6 -40 26 -70 46 -120 80 -315 170 -443 205 -234 63 -308 74 -521 73 -170 0 -216 -4 -305 -23z m573 -296 c92 -14 273 -73 382 -126 513 -246 834 -760 835 -1334 1 -821 -657 -1479 -1480 -1480 -219 0 -452 52 -648 147 -510 245 -831 760 -832 1333 -1 569 326 1092 834 1334 160 77 301 116 506 140 55 7 328 -3 403 -14z m1647 -825 c384 -47 718 -254 937 -580 293 -435 293 -1045 0 -1480 -102 -151 -220 -270 -372 -372 -245 -165 -557 -242 -862 -214 -300 29 -538 131 -777 337 l-80 68 45 21 c46 21 117 64 204 122 86 58 109 77 165 131 52 50 57 52 90 45 64 -14 145 -7 195 18 112 56 188 210 140 283 -19 28 -68 51 -86 40 -14 -8 -9 1 33 63 15 23 28 44 28 48 0 3 20 45 43 93 24 48 43 89 43 92 0 3 11 39 25 80 42 122 49 146 55 187 9 75 44 267 49 272 13 12 140 -20 212 -54 95 -46 192 -139 241 -233 51 -95 105 -115 167 -61 45 40 46 80 4 159 -69 131 -193 249 -335 319 -71 36 -198 71 -254 71 l-36 0 -23 136 c-13 75 -24 150 -26 166 -5 32 -14 64 -51 171 -13 38 -24 72 -24 78 0 13 117 11 250 -6z m-3530 -1380 c0 -15 123 -229 163 -284 18 -24 49 -62 70 -86 20 -23 37 -45 37 -48 0 -16 297 -287 315 -287 3 0 23 -13 43 -29 39 -31 140 -89 207 -120 149 -69 190 -85 270 -107 229 -62 308 -74 512 -74 197 0 326 16 445 56 l48 16 79 -84 c43 -46 104 -103 136 -128 32 -25 72 -57 89 -71 17 -14 54 -38 81 -54 28 -15 57 -33 65 -40 8 -7 38 -23 65 -35 28 -12 70 -32 95 -45 65 -32 302 -101 393 -114 101 -14 383 -14 484 0 165 23 537 159 582 213 8 9 19 16 25 16 11 1 32 15 158 112 76 58 199 181 253 252 17 22 39 50 50 62 11 12 31 43 43 68 13 25 28 48 34 52 5 4 34 57 64 118 51 106 53 109 54 71 0 -63 49 -152 118 -217 33 -32 72 -62 86 -68 l26 -10 0 -234 c0 -364 -22 -519 -102 -698 -79 -179 -218 -351 -371 -459 -121 -85 -283 -159 -361 -164 -316 -21 -609 -25 -1886 -25 -841 0 -1472 4 -1525 10 -420 44 -797 307 -984 686 -55 112 -87 206 -112 331 -21 103 -23 136 -27 719 l-4 611 33 13 c44 19 163 132 179 171 l13 31 29 -58 c15 -32 28 -63 28 -69z m3045 -335 c-9 -16 -20 -30 -26 -30 -6 0 -1 14 11 30 12 17 23 30 26 30 2 0 -2 -13 -11 -30z"/>
 <path d="M3155 5710 c-253 -28 -475 -160 -609 -364 -93 -142 -101 -192 -39 -246 40 -36 88 -40 126 -10 14 11 43 53 66 93 48 85 77 119 151 178 109 87 241 130 400 130 122 0 193 -16 300 -68 93 -45 209 -157 258 -250 18 -34 44 -71 59 -83 53 -42 130 -14 160 58 14 34 13 38 -26 116 -123 248 -372 416 -662 446 -56 5 -104 9 -108 9 -3 -1 -37 -5 -76 -9z"/>
 <path d="M2538 4529 c-29 -28 -30 -34 -25 -84 11 -106 73 -194 173 -245 69 -35 179 -35 246 -1 95 49 165 146 175 245 5 51 4 57 -25 85 -58 58 -143 26 -158 -59 -13 -75 -50 -110 -116 -110 -42 0 -96 33 -102 62 -3 13 -8 37 -11 53 -17 82 -101 111 -157 54z"/>
 <path d="M3466 4531 c-26 -27 -28 -35 -24 -88 12 -173 180 -299 351 -264 133 28 236 151 240 285 1 49 -43 96 -91 96 -42 0 -92 -46 -92 -85 0 -34 -24 -80 -52 -99 -12 -9 -41 -16 -63 -16 -22 0 -51 7 -63 16 -28 19 -52 65 -52 99 0 16 -12 38 -29 56 -40 40 -87 40 -125 0z"/>
 <path d="M5203 3900 c-38 -16 -56 -55 -49 -107 23 -169 199 -279 360 -224 90 31 176 149 176 242 0 50 -24 82 -71 94 -37 9 -86 -34 -95 -83 -9 -53 -28 -79 -69 -92 -70 -23 -135 24 -135 99 0 27 -39 69 -70 75 -14 3 -35 1 -47 -4z"/>
 </g>

</svg>